<svg xmlns="http://www.w3.org/2000/svg" width="1068" height="151" viewBox="0 0 1068 151"><defs><mask id="fhrwb" width="2" height="2" x="-1" y="-1"><path fill="#fff" d="M5 7h21v4H5z"/><path d="M8 11h15l3-4H5z"/></mask><filter id="fhrwa" width="61" height="44" x="-15" y="-13" filterUnits="userSpaceOnUse"><feOffset in="SourceGraphic" result="FeOffset1043Out"/><feGaussianBlur in="FeOffset1043Out" result="FeGaussianBlur1044Out" stdDeviation="4 4"/></filter><mask id="fhrwd" width="2" height="2" x="-1" y="-1"><path fill="#fff" d="M1042 7h21v4h-21z"/><path d="M1060 11h-15l-3-4h21z"/></mask><filter id="fhrwc" width="61" height="44" x="1022" y="-13" filterUnits="userSpaceOnUse"><feOffset in="SourceGraphic" result="FeOffset1075Out"/><feGaussianBlur in="FeOffset1075Out" result="FeGaussianBlur1076Out" stdDeviation="4 4"/></filter></defs><g><g><path fill="#575759" d="M96 149h56l3 2H93z"/></g><g><path fill="#575759" d="M916 149h56l3 2h-62z"/></g><g><path fill="#575759" d="M290 7h56l3 4h-62z"/></g><g><path fill="#575759" d="M225 11h15l3-4h-21z"/></g><g><g filter="url(#fhrwa)"><path fill="none" d="M8 11h15l3-4H5z" mask="url(&quot;#fhrwb&quot;)"/><path fill="#ffdf00" fill-opacity=".2" d="M8 11h15l3-4H5z"/></g><g filter="url(#fhrwa)"><path fill="none" d="M8 11h15l3-4H5z" mask="url(&quot;#fhrwb&quot;)"/><path fill="#ffdf00" fill-opacity=".2" d="M8 11h15l3-4H5z"/></g><path fill="#ffdf00" d="M8 11h15l3-4H5z"/></g><g><path fill="#575759" d="M778 7h-56l-3 4h62z"/></g><g><path fill="#575759" d="M843 11h-15l-3-4h21z"/></g><g><g filter="url(#fhrwc)"><path fill="none" d="M1060 11h-15l-3-4h21z" mask="url(&quot;#fhrwd&quot;)"/><path fill="#ffdf00" fill-opacity=".2" d="M1060 11h-15l-3-4h21z"/></g><g filter="url(#fhrwc)"><path fill="none" d="M1060 11h-15l-3-4h21z" mask="url(&quot;#fhrwd&quot;)"/><path fill="#ffdf00" fill-opacity=".2" d="M1060 11h-15l-3-4h21z"/></g><path fill="#ffdf00" d="M1060 11h-15l-3-4h21z"/></g></g></svg>