<svg xmlns="http://www.w3.org/2000/svg" width="59" height="70" viewBox="0 0 59 70"><g><g><path fill="#fff" d="M21.683 61.196l.212-16.534-1.06-1.717 1.484.644-6.15-10.307.425-1.074h2.332l-3.604-1.932h2.756l-2.544-2.577s2.186-2.333 4.452-6.012c.147-.029 7.845 4.294 7.845 4.294l6.573 1.289 4.453 4.294-4.877-1.932-1.484 2.362-3.817.214-3.816-1.932-1.908-3.006.212 4.938-1.696 1.503 2.332-.429 1.06-1.074 2.12 1.503 2.756 7.3.637-5.367.848 8.589-3.393 2.362h2.12l-.848 7.515 1.273-5.368-.424 6.442 1.484-6.871V70l-1.697-7.516-.636 3.436-.636-3.865-1.484 2.577-.848-15.031-1.908 17.822.212-13.528-1.06 8.16-.636-3.65zm10.6 2.362V48.742l1.273.644-1.908-2.791 2.12 1.503-1.908-4.08.848-5.583-.424-.214 2.12-1.074 6.573 1.933-4.24 6.226 1.06-.429.848 12.025-.636 3.22-.637-8.803L36.1 69.14l-.212-10.736-1.06-1.074-.424-.43v1.504zm6.15-30.276l-1.697 2.147-2.968-1.073 1.272-2.577zm.424 3.006l5.512-8.804 2.545 1.289-1.06 3.865-3.393 3.865-1.696.43zm-.636-8.589l-2.545-2.147 1.484-5.154 4.453 1.074 1.06 2.792-3.18 6.441zm-9.966-4.08l1.909-6.012 2.544-.214 2.544 1.502-2.332 6.013-1.06.43zm-6.572-3.006l1.06-3.865 1.908-.644 3.18.644v1.718l-2.12 4.724zM48.61 61.411l-5.513-10.522 2.12 6.657-5.936-12.24.636-1.073 1.696 3.22-1.06-4.509 2.968 6.442-2.332-7.515 1.06-1.718zM17.442 39.08l1.908 3.22-5.55 4.51c2.937 4.035 6.61 5.797 6.61 5.797-3.304-.836-5.215-3.077-5.298-3.214.654 1.563 2.145 3.237 2.118 3.214-1.932-1.478-3.53-3.044-4.845-4.649l-13.39 10.876 12.41-12.149a25.75 25.75 0 0 1-.052-.072l-7.693 4.92 6.843-6.183c-6.276-9.952-3.217-20.406-3.238-20.442-2.062 3.176-2.942 9.922-2.969 9.877.186-10.352 4.48-15.415 4.453-15.46-3.504 2.961-4.426 8.848-4.453 8.804.448-4.781 2.149-9.36 5.188-13.153L3.872 9.018l6.297 5.143c.181-.205.366-.408.555-.608L1.964 2.147l10.48 9.764c.157-.135.316-.269.477-.4L8.113 5.582l2.544-2.148 4.254 6.612c2.76-1.822 6.07-3.216 9.952-4.035.661-.14 1.31-.252 1.946-.34L25.711.429l2.332.644 1.272 3.436.212-4.51.849 4.94.848-4.725.424 4.295.424-3.436L34.404.43l-.643 5.206c7.713 1.02 12.262 5.288 12.304 5.316-6.557-3.137-11.66-2.577-11.66-2.577s5.793 1.72 10.812 4.724c.242.163.478.328.708.496l6.29-6.723-5.392 7.41c.074.058.147.118.219.177L56.03 7.73l1.06 1.503-3.393 3.22 4.24-2.146L59 11.81l-8.873 5.74c4.258 5.213 4.62 10.58 4.632 10.579.345-5.132-.914-9.61-1.05-9.866 1.624 2.071 3.383 8.376 3.383 14.59-.281 13.31-7.394 21.044-7.421 21.042 3.613-5.55 3.753-11.215 3.81-11.577-.88 2.545-3.078 5.057-3.524 5.65.618-1.15.588-2.66.562-2.662-1.637 1.958-4.428 4.037-4.651 4.273 2.299-3.73 4.044-7.197 5.075-10.285.878-2.63 2.335-12.914-3.3-20.136l-3.909 2.529-1.06-1.718-1.908-.859 3.2-3.421-.02-.014c-3.723-2.579-7.571-3.7-10.917-4.096l-.532 4.31-2.12.215-1.21-4.697-.093.002-.394 3.192-.657-3.138c-2.797.196-4.606.76-4.643.776 1.251-.848 3.134-1.548 4.395-1.96l-.26-1.239c-5.564.298-8.886 3.054-10.31 4.57l.19.297c2.704-1.694 6.414-2.993 6.409-2.956-1.922.907-3.836 2.359-5.596 4.22l1.567 2.436-.424 2.147-2.332 3.221-2.585-2.745c-2.72 4.618-4.46 10.349-4.2 16.273.128 2.902.843 5.366 1.84 7.429zm5.937-26.84v-.001zM45.853 49.6c-.002-.001.002-.008.014-.02l-.014.02zm4.029-1.502c-.018 0 .01-.045.074-.13a3.316 3.316 0 0 1-.074.13zm3.816-29.847c.002 0 .005.004.01.012l-.01-.012zm-7.632-7.3z"/></g></g></svg>