<svg xmlns="http://www.w3.org/2000/svg" width="47" height="118" viewBox="0 0 47 118"><defs><mask id="n8mfb" width="2" height="2" x="-1" y="-1"><path fill="#fff" d="M18 8h11v2H18z"/><path d="M18 8h11v2H18z"/></mask><filter id="n8mfa" width="51" height="42" x="-2" y="-12" filterUnits="userSpaceOnUse"><feOffset in="SourceGraphic" result="FeOffset1035Out"/><feGaussianBlur in="FeOffset1035Out" result="FeGaussianBlur1036Out" stdDeviation="4 4"/></filter><mask id="n8mfd" width="2" height="2" x="-1" y="-1"><path fill="#fff" d="M18 108h11v2H18z"/><path d="M18 108h11v2H18z"/></mask><filter id="n8mfc" width="51" height="42" x="-2" y="88" filterUnits="userSpaceOnUse"><feOffset in="SourceGraphic" result="FeOffset1057Out"/><feGaussianBlur in="FeOffset1057Out" result="FeGaussianBlur1058Out" stdDeviation="4 4"/></filter><mask id="n8mff" width="2" height="2" x="-1" y="-1"><path fill="#fff" d="M6 58h35v2H6z"/><path d="M6 58h35v2H6z"/></mask><filter id="n8mfe" width="75" height="42" x="-14" y="38" filterUnits="userSpaceOnUse"><feOffset in="SourceGraphic" result="FeOffset1079Out"/><feGaussianBlur in="FeOffset1079Out" result="FeGaussianBlur1080Out" stdDeviation="4 4"/></filter></defs><g><g><g><path fill="#27272a" d="M18 8h11v2H18zm0 5h23v2H18zm0 5h11v2H18zm0 5h11v2H18zm0 5h23v2H18zm0 15h23v2H18zm0-5h11v2H18zm0-5h11v2H18zm0 25h23v2H18zm0-5h11v2H18zm0-5h11v2H18zm0 25h23v2H18zm0-5h11v2H18zm0-5h11v2H18zm0 25h23v2H18zm0-5h11v2H18zm0-5h11v2H18zm0 25h23v2H18zm0-5h11v2H18zm0-5h11v2H18z"/></g><g><path fill="#27272a" d="M18 8h11v2H18zM6 13h23v2H6zm12 5h11v2H18zm0 5h11v2H18zM6 28h23v2H6zm0 15h23v2H6zm12-5h11v2H18zm0-5h11v2H18zM6 58h23v2H6zm12-5h11v2H18zm0-5h11v2H18zM6 73h23v2H6zm12-5h11v2H18zm0-5h11v2H18zM6 88h23v2H6zm12-5h11v2H18zm0-5h11v2H18zM6 103h23v2H6zm12-5h11v2H18zm0-5h11v2H18z"/></g><g><g filter="url(#n8mfa)"><path fill="none" d="M18 8h11v2H18z" mask="url(&quot;#n8mfb&quot;)"/><path fill="#a6ec12" fill-opacity=".35" d="M18 8h11v2H18z"/></g><g filter="url(#n8mfa)"><path fill="none" d="M18 8h11v2H18z" mask="url(&quot;#n8mfb&quot;)"/><path fill="#a6ec12" fill-opacity=".35" d="M18 8h11v2H18z"/></g><path fill="#a6ec12" d="M18 8h11v2H18z"/></g><g><g filter="url(#n8mfc)"><path fill="none" d="M18 108h11v2H18z" mask="url(&quot;#n8mfd&quot;)"/><path fill="#a6ec12" fill-opacity=".35" d="M18 108h11v2H18z"/></g><g filter="url(#n8mfc)"><path fill="none" d="M18 108h11v2H18z" mask="url(&quot;#n8mfd&quot;)"/><path fill="#a6ec12" fill-opacity=".35" d="M18 108h11v2H18z"/></g><path fill="#a6ec12" d="M18 108h11v2H18z"/></g><g><g filter="url(#n8mfe)"><path fill="none" d="M6 58h35v2H6z" mask="url(&quot;#n8mff&quot;)"/><path fill="#a6ec12" fill-opacity=".35" d="M6 58h35v2H6z"/></g><g filter="url(#n8mfe)"><path fill="none" d="M6 58h35v2H6z" mask="url(&quot;#n8mff&quot;)"/><path fill="#a6ec12" fill-opacity=".35" d="M6 58h35v2H6z"/></g><path fill="#a6ec12" d="M6 58h35v2H6z"/></g></g></g></svg>